<svg width="24" height="24" viewBox="0 0 24 24" fill="none" xmlns="http://www.w3.org/2000/svg">
<path d="M9.5 15.584V8.41604C9.50015 8.32635 9.52442 8.23836 9.57026 8.16128C9.61611 8.0842 9.68184 8.02087 9.76057 7.97792C9.83931 7.93498 9.92814 7.914 10.0178 7.91719C10.1074 7.92037 10.1945 7.94761 10.27 7.99604L15.846 11.579C15.9166 11.6243 15.9747 11.6865 16.0149 11.7601C16.0552 11.8337 16.0763 11.9162 16.0763 12C16.0763 12.0839 16.0552 12.1664 16.0149 12.24C15.9747 12.3135 15.9166 12.3758 15.846 12.421L10.27 16.005C10.1945 16.0535 10.1074 16.0807 10.0178 16.0839C9.92814 16.0871 9.83931 16.0661 9.76057 16.0232C9.68184 15.9802 9.61611 15.9169 9.57026 15.8398C9.52442 15.7627 9.50015 15.6747 9.5 15.585V15.584Z" fill="black"/>
<path d="M1 12C1 5.925 5.925 1 12 1C18.075 1 23 5.925 23 12C23 18.075 18.075 23 12 23C5.925 23 1 18.075 1 12ZM12 2.5C9.48044 2.5 7.06408 3.50089 5.28249 5.28249C3.50089 7.06408 2.5 9.48044 2.5 12C2.5 14.5196 3.50089 16.9359 5.28249 18.7175C7.06408 20.4991 9.48044 21.5 12 21.5C14.5196 21.5 16.9359 20.4991 18.7175 18.7175C20.4991 16.9359 21.5 14.5196 21.5 12C21.5 9.48044 20.4991 7.06408 18.7175 5.28249C16.9359 3.50089 14.5196 2.5 12 2.5Z" fill="black"/>
</svg>
